<?xml version="1.0" encoding="utf-8"?>
<!-- Generator: Adobe Illustrator 27.5.0, SVG Export Plug-In . SVG Version: 6.00 Build 0)  -->
<svg version="1.1" id="Слой_1" xmlns="http://www.w3.org/2000/svg" xmlns:xlink="http://www.w3.org/1999/xlink" x="0px" y="0px"
	 viewBox="0 0 3100 2000" style="enable-background:new 0 0 3100 2000;" xml:space="preserve">
<rect x="0" style="fill:#FFFFFF;" width="3100" height="2000"/>
<g>
	<rect x="1621.915" y="847.963" style="fill:#D6E0FF;" width="251.603" height="1024.611"/>
	<g>
		<rect x="1473.242" y="707.525" style="fill:#C9D7FF;" width="278.219" height="1165.049"/>
		<rect x="1506.994" y="641.905" style="fill:#C9D7FF;" width="210.715" height="69.696"/>
		<rect x="1549.43" y="572.655" style="fill:#C9D7FF;" width="125.843" height="69.696"/>
	</g>
	<rect x="1050.471" y="683.14" style="fill:#D6E0FF;" width="431.646" height="1189.434"/>
	<g>
		<rect x="2189.133" y="594.385" style="fill:#D6E0FF;" width="333.111" height="1217.938"/>
		<rect x="2641.096" y="944.417" style="fill:#D6E0FF;" width="333.111" height="940.794"/>
		<rect x="2082.439" y="771.37" style="fill:#C9D7FF;" width="299.576" height="1113.841"/>
		<rect x="2372.938" y="511.126" style="fill:#C9D7FF;" width="419.14" height="1374.085"/>
		<g>
			<g>
				<rect x="2124.078" y="854.648" style="fill:#BFD0FF;" width="62.459" height="93.687"/>
				<rect x="2219.5" y="854.648" style="fill:#BFD0FF;" width="62.459" height="93.687"/>
				<rect x="2314.924" y="854.648" style="fill:#BFD0FF;" width="62.458" height="93.687"/>
			</g>
			<g>
				<rect x="2124.078" y="995.179" style="fill:#BFD0FF;" width="62.459" height="93.688"/>
				<rect x="2219.5" y="995.179" style="fill:#BFD0FF;" width="62.459" height="93.688"/>
				<rect x="2314.924" y="995.179" style="fill:#BFD0FF;" width="62.458" height="93.688"/>
			</g>
			<g>
				<rect x="2124.078" y="1135.711" style="fill:#BFD0FF;" width="62.459" height="93.688"/>
				<rect x="2219.5" y="1135.711" style="fill:#BFD0FF;" width="62.459" height="93.688"/>
				<rect x="2314.924" y="1135.711" style="fill:#BFD0FF;" width="62.458" height="93.688"/>
			</g>
			<g>
				<rect x="2124.078" y="1276.242" style="fill:#BFD0FF;" width="62.459" height="93.688"/>
				<rect x="2219.5" y="1276.242" style="fill:#BFD0FF;" width="62.459" height="93.688"/>
				<rect x="2314.924" y="1276.242" style="fill:#BFD0FF;" width="62.458" height="93.688"/>
			</g>
			<g>
				<rect x="2124.078" y="1416.773" style="fill:#BFD0FF;" width="62.459" height="93.688"/>
				<rect x="2219.5" y="1416.773" style="fill:#BFD0FF;" width="62.459" height="93.688"/>
				<rect x="2314.924" y="1416.773" style="fill:#BFD0FF;" width="62.458" height="93.688"/>
			</g>
		</g>
		<g>
			<g>
				<rect x="2440.49" y="854.648" style="fill:#BFD0FF;" width="62.457" height="93.687"/>
				<rect x="2551.277" y="854.648" style="fill:#BFD0FF;" width="62.459" height="93.687"/>
				<rect x="2660.165" y="854.648" style="fill:#BFD0FF;" width="62.458" height="93.687"/>
			</g>
			<g>
				<rect x="2440.49" y="703.678" style="fill:#BFD0FF;" width="62.457" height="93.688"/>
				<rect x="2551.277" y="703.678" style="fill:#BFD0FF;" width="62.459" height="93.688"/>
				<rect x="2660.165" y="703.678" style="fill:#BFD0FF;" width="62.458" height="93.688"/>
			</g>
			<g>
				<rect x="2440.49" y="560.659" style="fill:#BFD0FF;" width="62.457" height="93.688"/>
				<rect x="2551.277" y="560.659" style="fill:#BFD0FF;" width="62.459" height="93.688"/>
				<rect x="2660.165" y="560.659" style="fill:#BFD0FF;" width="62.458" height="93.688"/>
			</g>
			<g>
				<rect x="2440.49" y="995.179" style="fill:#BFD0FF;" width="62.457" height="93.688"/>
				<rect x="2551.277" y="995.179" style="fill:#BFD0FF;" width="62.459" height="93.688"/>
				<rect x="2660.165" y="995.179" style="fill:#BFD0FF;" width="62.458" height="93.688"/>
			</g>
			<g>
				<rect x="2440.49" y="1135.711" style="fill:#BFD0FF;" width="62.457" height="93.688"/>
				<rect x="2551.277" y="1135.711" style="fill:#BFD0FF;" width="62.459" height="93.688"/>
				<rect x="2660.165" y="1135.711" style="fill:#BFD0FF;" width="62.458" height="93.688"/>
			</g>
			<g>
				<rect x="2440.49" y="1276.242" style="fill:#BFD0FF;" width="62.457" height="93.688"/>
				<rect x="2551.277" y="1276.242" style="fill:#BFD0FF;" width="62.459" height="93.688"/>
				<rect x="2660.165" y="1276.242" style="fill:#BFD0FF;" width="62.458" height="93.688"/>
			</g>
			<g>
				<rect x="2440.49" y="1416.773" style="fill:#BFD0FF;" width="62.457" height="93.688"/>
				<rect x="2551.277" y="1416.773" style="fill:#BFD0FF;" width="62.459" height="93.688"/>
				<rect x="2660.165" y="1416.773" style="fill:#BFD0FF;" width="62.458" height="93.688"/>
			</g>
		</g>
		<rect x="2900.488" y="874.834" style="fill:#D6E0FF;" width="73.719" height="69.583"/>
		<rect x="2440.49" y="435.763" style="fill:#C9D7FF;" width="284.035" height="75.363"/>
	</g>
	<path style="fill:#95A6DB;" d="M2970.371,1903.797H89.913c-8.622,0-15.611-6.99-15.611-15.611v-0.001
		c0-8.622,6.989-15.61,15.611-15.61h2880.458c8.621,0,15.611,6.988,15.611,15.61v0.001
		C2985.982,1896.807,2978.992,1903.797,2970.371,1903.797z"/>
	<path style="fill:#E3EAFF;" d="M1747.717,486.973c2.957-66.088,57.478-118.765,124.297-118.765
		c22.563,0,43.718,6.008,61.963,16.501l0.002,0.001c2.262-32.523,29.359-58.206,62.457-58.206c29.682,0,54.537,20.653,60.986,48.37
		l0,0c7.92-1.912,16.181-2.918,24.684-2.918c44.751,0,82.979,27.935,98.186,67.322c8.932-3.534,18.668-5.479,28.859-5.479
		c24.465,0,46.313,11.189,60.705,28.732c8.002,9.753,0.881,24.441-11.734,24.441H1747.717z"/>
	<path style="fill:#E3EAFF;" d="M1474.841,344.698c0,0.682-0.007,1.358-0.025,2.034h-234.775c6.64-22.9,27.776-39.647,52.823-39.647
		c5.736,0,11.262,0.879,16.458,2.502c13.458-30.26,43.785-51.365,79.043-51.365C1436.128,258.222,1474.841,296.941,1474.841,344.698
		z"/>
	<path style="fill:#E3EAFF;" d="M1091.522,203.784c0,0.897-0.016,1.794-0.056,2.683H686.358c-0.039-0.889-0.055-1.786-0.055-2.683
		c0-39.578,32.081-71.659,71.651-71.659c7.474,0,14.674,1.145,21.443,3.268c17.534-39.435,57.048-66.925,102.987-66.925
		c47.692,0,88.457,29.629,104.901,71.475c9.78-4.999,20.851-7.818,32.586-7.818C1059.441,132.125,1091.522,164.206,1091.522,203.784
		z"/>
	<path style="fill:#E3EAFF;" d="M2591.756,272.784c0,0.897-0.016,1.795-0.057,2.683h-405.106c-0.04-0.888-0.056-1.787-0.056-2.683
		c0-39.579,32.08-71.659,71.65-71.659c7.475,0,14.675,1.145,21.443,3.268c17.535-39.434,57.049-66.924,102.987-66.924
		c47.692,0,88.456,29.629,104.901,71.475c9.78-4.999,20.85-7.818,32.586-7.818C2559.675,201.125,2591.756,233.206,2591.756,272.784z
		"/>
	<g>
		<path style="fill:#E62552;" d="M3048.084,1547.729c1.277-16.973,0.053-33.867-3.479-50.209
			c-6.095-28.151-19.64-61.968-56.937-93.508c-78.871-66.705-335.563-152.926-553.682-150.118
			c-31.785-18.425-327.193-245.454-457.806-318.864c-123.63-68.643-814.681-27.101-878.241-18.843
			c-174.473,21.925-495.317,308.973-501.043,394.458c-0.306,4.143-0.633,308.279,4.45,328.306
			c5.094,20.017,270.778,64.826,270.778,64.826s2067.274,56.578,2096.507,51.803c27.671-1.572,53.403-14.729,70.879-36.236
			C3054.127,1694.572,3048.084,1547.729,3048.084,1547.729z M1134.849,1271.634c0,0-124.58-28.265-124.794-77.371
			c-0.214-49.097,234.277-239.218,368.89-231.47c0,0,24.967,197.796,85.526,309.841
			C1389.376,1273.89,1134.849,1271.634,1134.849,1271.634z M1515.936,1271.634c-65.591-97.245-98.99-314.23-98.99-314.23
			s360.459,2.572,429.991,8.186c69.531,5.614,508.545,328.57,508.545,328.57S1588.315,1273.91,1515.936,1271.634z"/>
		<path style="fill:#C4204A;" d="M3047.772,1584.188c0,0,6.038,109.213-8.581,134.002c-17.477,21.507-43.203,34.658-70.871,36.23
			c-29.238,4.768-2272.26,4.449-2311.987,0c-39.726-4.449-55.298-58.795-56.252-102.016c0-9.217-3.496,14.412-4.131-68.217H3047.772
			z"/>
		<path style="fill:#C4204A;" d="M2302.898,1654.521c0.283-143.225,116.619-259.101,259.844-258.82
			c143.225,0.283,259.102,116.619,258.819,259.843c-0.056,28.079-4.671,55.962-13.665,82.56l-438.258,20.658l-60.065-46.082
			C2305.52,1693.547,2303.285,1674.074,2302.898,1654.521z"/>
		<g>
			
				<ellipse transform="matrix(0.7071 -0.7071 0.7071 0.7071 -419.463 2296.3687)" style="fill:#062440;" cx="2562.231" cy="1654.521" rx="218.969" ry="218.97"/>
			
				<ellipse transform="matrix(0.7071 -0.7071 0.7071 0.7071 -419.463 2296.3684)" style="fill:#B8C6F2;" cx="2562.23" cy="1654.521" rx="156.994" ry="156.994"/>
			
				<ellipse transform="matrix(0.9991 -0.0416 0.0416 0.9991 -66.5459 107.912)" style="fill:#98B0F2;" cx="2562.23" cy="1654.521" rx="89.869" ry="89.869"/>
		</g>
		<path style="fill:#C4204A;" d="M838.438,1654.521c0-143.313,116.178-259.492,259.491-259.492
			c143.313,0,259.49,116.179,259.49,259.492c0.375,27.226-3.925,54.315-12.711,80.087l-500.548-26.696
			C840.418,1690.359,838.501,1672.468,838.438,1654.521z"/>
		<g>
			<path style="fill:#062440;" d="M1098.043,1435.551c-120.934-0.057-219.016,97.933-219.074,218.866
				c-0.057,120.933,97.933,219.017,218.866,219.073c120.935,0.058,219.017-97.932,219.074-218.865
				C1316.967,1533.691,1218.978,1435.607,1098.043,1435.551z"/>
			<path style="fill:#B8C6F2;" d="M1098.014,1497.527c-86.706-0.042-157.027,70.213-157.068,156.919
				c-0.041,86.705,70.214,157.027,156.919,157.068c86.706,0.042,157.027-70.214,157.068-156.919
				C1254.975,1567.89,1184.72,1497.567,1098.014,1497.527z"/>
			<path style="fill:#98B0F2;" d="M1097.982,1564.651c-49.634-0.023-89.888,40.193-89.912,89.827
				c-0.024,49.633,40.193,89.888,89.827,89.912c49.633,0.023,89.888-40.193,89.912-89.828
				C1187.833,1604.93,1147.616,1564.676,1097.982,1564.651z"/>
		</g>
		<path style="fill:#F37A50;" d="M2817.261,1393.238c0,0,170.405,10.77,195.028,88.886c13.293,27.323-138.049,10.38-138.049,10.38
			L2817.261,1393.238z"/>
		<path style="fill:#C4204A;" d="M2355.481,1294.164l-106.23-82.851c0,0-119.101-21.709-124.645,65.844
			C2127.789,1361.732,2323.759,1315.871,2355.481,1294.164z"/>
		<path style="fill:#C4204A;" d="M1732.824,1357.258h-159.213c-9.545,0-17.281-7.738-17.281-17.281l0,0
			c0-9.545,7.736-17.281,17.281-17.281h159.213c9.544,0,17.281,7.736,17.281,17.281l0,0
			C1750.105,1349.52,1742.368,1357.258,1732.824,1357.258z"/>
	</g>
	<g>
		<path style="fill:#2C2858;" d="M1002.246,1877.988l-712.028,0.311c-77.379,0.049-140.147-62.64-140.196-140.02l-0.76-1330.402
			c-0.049-77.379,62.64-140.147,140.018-140.196l712.027-0.31c77.379-0.049,140.146,62.639,140.195,140.018l0.76,1330.403
			C1142.313,1815.172,1079.625,1877.939,1002.246,1877.988z"/>
		<path style="fill:#B8C6F2;" d="M970.369,1836.998l-647.789,0.278c-70.398,0.044-127.504-57.899-127.549-129.421l-0.707-1267.859
			c-0.045-71.521,56.986-129.537,127.384-129.582l647.789-0.278c70.398-0.044,127.503,57.9,127.549,129.421l0.706,1267.858
			C1097.798,1778.938,1040.767,1836.955,970.369,1836.998z"/>
		<g>
			<path style="fill:#E3EAFF;" d="M827.69,1377.264l137.59-86.48l28.58,78.381l-128.36,80.379l14.01,23.631l218.04-136.449
				l-0.02-32.482l-79.41,49.731l-28.6-78.41l107.95-67.85l-0.08-157.75l-13.72-22.609l13.69-19.199l-0.02-48.071l-30.69,43.03
				l-117.47-58.29l100.46-140.87l47.63,26.44l-0.02-31.819l-31.36-17.42l31.32-43.92l-0.03-57.66l-52.34-29.08l52.32-5.5
				l-0.01-27.859l-94.9,9.699l-198.49-110.29l261.94-130.379l31.35,57.129v-3.74c-0.03-47.79-25.54-89.51-63.46-111.93l5.15,9.39
				l-102.69,51.11l-78.53-77.94l-39.82,0.02l91.38,91.35l-151.98,75.63l-172.14-128.01l22.02-38.881l-62.31,0.02l-52.9,76.25
				l-67.08-35.05l27.65-41.16l-33.67,0.02l-37.73,56.16l-49-56.12h-10.23c-29.15,0.02-53.377,11.911-53.377,11.911l50.177,57.739
				l-123.5,46.32c-0.46,4.47-0.68,29.96-0.68,29.96l143.5-53.81l-0.15-0.41l9.83,11.319l-99.16,174.4l-54.02-122.83l0.08,137.66
				l19.88,45.06l-19.83,34.871l0.05,92.59l77.12,117.39l-13.92,17.65l-63.11,21.93l0.01,29.69l79.91-27.99l137.4-174.179
				l54.52,23.819l-233.02,515.02l-38.73-190.869l0.08,143.359l11.94,59.43l-11.9,3.34l0.03,57.45l54.04-15.3l386.96,135.309
				l122.35-73.42l-7.146,26.619h58.86L827.69,1377.264z M1030.76,1046.463l59.901,99.842l-120.88,75.149l-46.44-127.31l83.72-59.439
				L1030.76,1046.463z M978.73,1020.643l-73.75,52.36l-66.12-33.641l73.53-51.639L978.73,1020.643z M665.15,1127.725l-57.33-77.102
				l-33.18-114.46l209.93,106.81L665.15,1127.725z M675.49,1235.953l-96.55,68.54l45.22-137.229L675.49,1235.953z M882.98,973.134
				l-72.78,51.649l-246.18-125.26l-26.22-97.69L882.98,973.134z M538.44,643.243l2.17,4.291l119.78-59.63l124.09,68.87
				l-108.66,152.39l-93.21-46.26L538.44,643.243z M528.4,979.104l27.6,96.54l2.8,4.161l32.4,43.35l-141.54-40.631L528.4,979.104z
				 M813.07,1057.483l66.28,33.722L721.4,1203.354l-39.8-53.52L813.07,1057.483z M923.84,932.253l-222.69-110.52l107.92-151.31
				l215.99,119.881L923.84,932.253z M1003.59,659.443l82.22,45.67l-44.49,62.39l-80.61-44.77L1003.59,659.443z M773.52,531.594
				l205.13,113.98l-41.89,63.84l-245.97-136.64L773.52,531.594z M569.11,372.134l65.55,48.749l-31.02,41.79l-66.04-44.92
				L569.11,372.134z M521.77,440.674l87.47,59.53l47.711-62.75l72.17,53.66L520.6,594.893l-36.69-99.41L521.77,440.674z
				 M414.05,367.363l61.84,42.08l-25.44,36.67l-50.48-57.8L414.05,367.363z M366.95,435.813l50.41,57.991L306.51,653.543
				l-36.21-15.739l-7.93-18.071L366.95,435.813z M289.87,869.444l-90.86-138.28l29.35-51.63l157.1,68.61L289.87,869.444z
				 M358.97,676.373l85.99-124.49l71.71,193.07L358.97,676.373z M493.61,857.343l25.22,88.231l-159.37,209.31L493.61,857.343z
				 M289.14,1310.854l19.35-42.92l123.14-161.74l167.22,48.41l-78.24,237.5L289.14,1310.854z M628.84,1430.094l-81.81-28.721
				l17.22-52.26l127.93-90.84l69.59,93.11L628.84,1430.094z M809.13,1321.334l-71.09-95.609l161.64-114.781l45.82,125.599
				L809.13,1321.334z"/>
		</g>
		<polygon style="fill:#80BC48;" points="306.51,653.543 417.36,493.805 366.95,435.813 262.37,619.733 270.3,637.805 		"/>
		<polygon style="fill:#80BC48;" points="1097.05,443.293 1065.7,386.164 803.76,516.543 1002.25,626.833 1097.15,617.134 		"/>
		<polygon style="fill:#80BC48;" points="578.94,1304.493 624.16,1167.264 675.49,1235.953 		"/>
		<path style="fill:#E62552;" d="M606.515,525.63c-47.553,0-86.095,38.555-86.095,86.094c0,47.554,86.095,194.942,86.095,194.942
			s86.094-147.389,86.094-194.942C692.609,564.185,654.067,525.63,606.515,525.63z M606.515,655.789
			c-22.951,0-41.567-18.603-41.567-41.567c0-22.95,18.617-41.567,41.567-41.567c22.951,0,41.567,18.617,41.567,41.567
			C648.083,637.187,629.466,655.789,606.515,655.789z"/>
		<g>
			<g>
				<path style="fill:#E62552;" d="M591.197,802.439c-0.812,0-1.637-0.166-2.427-0.515l-18.286-8.104
					c-3.029-1.343-4.397-4.886-3.054-7.916c1.342-3.029,4.886-4.396,7.916-3.054l18.286,8.102c3.029,1.342,4.397,4.887,3.054,7.916
					C595.693,801.108,593.498,802.439,591.197,802.439z"/>
			</g>
			<g>
				<path style="fill:#E62552;" d="M550.563,784.433c-0.812,0-1.637-0.166-2.427-0.516l-22.348-9.903
					c-3.03-1.342-4.397-4.888-3.055-7.917c1.343-3.029,4.887-4.396,7.917-3.055l22.348,9.904c3.03,1.342,4.398,4.886,3.055,7.917
					C555.06,783.102,552.865,784.433,550.563,784.433z"/>
			</g>
			<g>
				<path style="fill:#E62552;" d="M493.4,775.659c-2.573,0-4.952-1.667-5.739-4.257l-5.815-19.135
					c-0.683-2.246,0.007-4.684,1.765-6.239c1.757-1.555,4.261-1.943,6.406-0.992l18.286,8.103c3.029,1.342,4.397,4.886,3.054,7.916
					c-1.342,3.03-4.886,4.397-7.916,3.055l-6.302-2.793l2.004,6.597c0.963,3.17-0.826,6.521-3.996,7.485
					C494.564,775.575,493.978,775.659,493.4,775.659z"/>
			</g>
			<g>
				<path style="fill:#E62552;" d="M759.23,1309.771c-1.874,0-3.718-0.873-4.889-2.515l-21.948-30.757
					c-1.925-2.697-1.298-6.443,1.399-8.369c2.697-1.924,6.444-1.299,8.369,1.398l21.947,30.758c1.925,2.697,1.299,6.443-1.398,8.369
					C761.654,1309.409,760.435,1309.771,759.23,1309.771z M715.334,1248.26c-1.873,0-3.718-0.875-4.889-2.516l-21.948-30.756
					c-1.925-2.699-1.299-6.445,1.398-8.371c2.698-1.924,6.445-1.297,8.37,1.4l21.948,30.757c1.925,2.697,1.298,6.443-1.399,8.369
					C717.758,1247.896,716.541,1248.26,715.334,1248.26z M671.438,1186.746c-1.873,0-3.718-0.875-4.889-2.516l-21.948-30.757
					c-1.925-2.697-1.299-6.444,1.398-8.368c2.697-1.926,6.444-1.3,8.369,1.399l21.948,30.756c1.925,2.697,1.299,6.445-1.399,8.369
					C673.862,1186.383,672.644,1186.746,671.438,1186.746z M627.542,1125.232c-1.873,0-3.718-0.875-4.889-2.516l-21.948-30.756
					c-1.925-2.697-1.298-6.445,1.399-8.369c2.697-1.926,6.444-1.299,8.369,1.398l21.947,30.756c1.925,2.697,1.299,6.445-1.398,8.369
					C629.967,1124.869,628.749,1125.232,627.542,1125.232z M583.647,1063.719c-1.873,0-3.718-0.875-4.889-2.516l-4.703-6.59
					c-0.378-0.529-0.667-1.117-0.856-1.74l-8.633-28.406c-0.963-3.17,0.826-6.521,3.997-7.486c3.17-0.963,6.521,0.826,7.485,3.997
					l8.346,27.466l4.132,5.79c1.925,2.696,1.299,6.444-1.399,8.37C586.071,1063.355,584.854,1063.719,583.647,1063.719z
					 M559.319,992.572c-2.573,0-4.952-1.668-5.739-4.256l-10.986-36.153c-0.964-3.17,0.825-6.522,3.996-7.484
					c3.17-0.965,6.522,0.825,7.485,3.996l10.986,36.152c0.963,3.171-0.826,6.522-3.996,7.485
					C560.483,992.488,559.896,992.572,559.319,992.572z M537.346,920.267c-2.573,0-4.952-1.667-5.739-4.256l-10.986-36.153
					c-0.963-3.17,0.826-6.521,3.996-7.485c3.17-0.964,6.522,0.826,7.485,3.996l10.986,36.152c0.964,3.171-0.826,6.522-3.996,7.486
					C538.511,920.184,537.923,920.267,537.346,920.267z M515.372,847.963c-2.573,0-4.952-1.668-5.739-4.256l-10.986-36.153
					c-0.964-3.17,0.826-6.522,3.996-7.485c3.171-0.964,6.522,0.826,7.485,3.996l10.987,36.153c0.963,3.17-0.826,6.521-3.997,7.485
					C516.538,847.879,515.95,847.963,515.372,847.963z"/>
			</g>
			<g>
				<path style="fill:#E62552;" d="M776.51,1368.42c-1.873,0-3.72-0.875-4.89-2.518c-1.924-2.697-1.296-6.445,1.402-8.369
					l11.397-8.125l-8.131-11.395c-1.924-2.697-1.298-6.443,1.399-8.369c2.697-1.924,6.444-1.299,8.369,1.398l11.618,16.28
					c0.924,1.296,1.296,2.905,1.033,4.476c-0.263,1.569-1.138,2.971-2.434,3.895l-16.285,11.611
					C778.933,1368.058,777.716,1368.42,776.51,1368.42z"/>
			</g>
			<g>
				<path style="fill:#E62552;" d="M710.67,1415.361c-1.875,0-3.72-0.875-4.891-2.518c-1.924-2.697-1.296-6.445,1.402-8.369
					l32.92-23.471c2.698-1.924,6.444-1.295,8.368,1.402c1.924,2.699,1.296,6.445-1.402,8.369l-32.921,23.471
					C713.092,1414.999,711.875,1415.361,710.67,1415.361z"/>
			</g>
			<g>
				<path style="fill:#E62552;" d="M661.465,1450.443c-1.874,0-3.72-0.875-4.89-2.518c-1.924-2.699-1.296-6.445,1.402-8.369
					l16.285-11.609c2.698-1.924,6.445-1.297,8.368,1.401c1.924,2.698,1.296,6.445-1.402,8.369l-16.285,11.61
					C663.887,1450.08,662.67,1450.443,661.465,1450.443z"/>
			</g>
		</g>
		<g>
			<path style="fill:#FFFFFF;" d="M1097.43,1436.159v304.664c0,53.091-43.02,96.14-96.12,96.17l-710.21,0.312
				c-53.11,0.039-96.2-42.991-96.23-96.111l-0.18-305.034H1097.43z"/>
			<path style="fill:#E3EAFF;" d="M981.079,1579.799H604.501c-10.48,0-18.977-8.497-18.977-18.977v-23.518
				c0-10.48,8.497-18.976,18.977-18.976h376.577c10.48,0,18.977,8.496,18.977,18.976v23.518
				C1000.055,1571.302,991.559,1579.799,981.079,1579.799z"/>
			<g>
				<path style="fill:#B8C6F2;" d="M504.975,1576.512c-0.511-9.938-4.403-17.867-12.108-23.736
					c-5.5-4.189-11.801-6.058-18.701-6.035c-12.823,0.043-28.771,10.336-29.597,29.92c-27.997,0-56.006,0-84.28,0
					c-0.356-9.895-4.322-18.031-12.377-24.031c-5.405-4.025-11.492-6.002-18.196-5.863c-8.101,0.167-15.201,3.018-20.89,8.83
					c-5.556,5.678-8.678,12.535-8.719,20.959c-5.081-1.443-9.836-2.746-14.547-4.196c-0.523-0.161-1.127-1.148-1.13-1.755
					c-0.055-13.899-0.139-27.799,0.093-41.693c0.034-2.053,1.265-4.353,2.561-6.072c7.038-9.336,16.516-15.793,26.503-21.502
					c11.277-6.443,23.195-11.288,36.199-12.927c3.66-0.461,7.372-0.676,11.063-0.702c11.733-0.088,23.485,0.371,35.195-0.152
					c10.525-0.471,19.926,2.449,28.359,8.139c9.701,6.546,18.977,13.738,28.231,20.916c2.281,1.769,4.525,2.593,7.265,2.981
					c15.749,2.232,31.356,5.175,45.858,12.041c4.1,1.941,7.837,4.74,11.511,7.459c2.428,1.797,3.342,4.577,3.322,7.662
					c-0.05,7.762-0.036,15.523,0.004,23.285c0.006,1.301-0.164,2.165-1.672,2.559
					C514.39,1573.777,509.898,1575.116,504.975,1576.512z M313.156,1519.307c19.26,0.656,38.522,1.313,57.918,1.973
					c0-6.535,0-12.709,0-18.823C349.382,1500.074,330.448,1506.833,313.156,1519.307z M385.713,1502.08c0,6.822,0,13.164,0,19.633
					c17.486,0.611,34.764,1.216,52.042,1.82c0.044-0.24,0.088-0.481,0.133-0.723c-2.98-2.32-5.836-4.824-8.965-6.92
					c-5.307-3.556-10.786-6.854-16.191-10.26C404.292,1500.313,394.918,1502.628,385.713,1502.08z"/>
				<path style="fill:#B8C6F2;" d="M330.195,1556.377c11.282,0.017,20.502,9.26,20.476,20.529
					c-0.025,11.232-9.361,20.523-20.576,20.477c-11.258-0.048-20.503-9.342-20.474-20.577
					C309.651,1565.531,318.888,1556.359,330.195,1556.377z"/>
				<path style="fill:#B8C6F2;" d="M475.022,1556.377c11.245,0.073,20.423,9.424,20.309,20.693
					c-0.113,11.225-9.567,20.486-20.737,20.313c-11.294-0.176-20.441-9.517-20.312-20.742
					C454.412,1565.351,463.671,1556.303,475.022,1556.377z"/>
			</g>
			<path style="fill:#E3EAFF;" d="M949.345,1712.733H365.507c-12.919,0-23.392-10.473-23.392-23.392v-21.291
				c0-12.92,10.473-23.392,23.392-23.392h583.838c12.919,0,23.392,10.473,23.392,23.392v21.291
				C972.737,1702.261,962.264,1712.733,949.345,1712.733z"/>
			<path style="fill:#E3EAFF;" d="M949.345,1803.693H365.507c-12.919,0-23.392-10.473-23.392-23.393v-21.291
				c0-12.918,10.473-23.392,23.392-23.392h583.838c12.919,0,23.392,10.474,23.392,23.392v21.291
				C972.737,1793.221,962.264,1803.693,949.345,1803.693z"/>
		</g>
		<polygon style="fill:#80BC48;" points="574.64,936.164 607.82,1050.623 665.15,1127.725 784.57,1042.974 		"/>
	</g>
	<g id="c_40_">
		<g>
			<polygon id="v-2_7_" style="fill:#F37A50;" points="1334.974,745.427 1334.934,745.427 1300.722,745.554 1292.973,826.36 
				1332.911,847.447 1375.499,826.599 1368.616,745.554 			"/>
			<g>
				<g>
					<path style="fill:#F37A50;" d="M1402.966,687.793c-7.783,58.599-51.401,101.146-97.424,95.033
						c-46.022-6.113-77.022-58.571-69.239-117.168c7.783-58.599,51.401-101.146,97.424-95.032
						C1379.749,576.738,1410.749,629.196,1402.966,687.793z"/>
					<path style="fill:#DE623C;" d="M1290.656,689.07c-8.464,11.027-19.138,24.449-19.138,24.449s3.103,12.79,19.412,14.536
						c-6.636-3.522-13.021-8.831-9.317-17.771C1285.315,701.343,1290.656,689.07,1290.656,689.07z"/>
					<path style="fill:#201D40;" d="M1421.95,640.684c4.992-55.831-46.348-74.165-46.348-74.165s11.499-4.043,8.709-20.922
						c-8.11,4.984-18.034,7.292-27.508,6.354c-63.833-6.323-104.014,4.175-97.663,29.192c2.26,8.902-39.146,13.465-20.705,72.537
						c3.947-6.976,7.494-33.158,19.907-38.924c12.457-5.786,5.065,14.644,33.259,11.469c28.448-3.203,46.966-15.007,67.693-3.771
						c16.572,10.184,37.296,78.161,36.349,82.808C1397.813,694.604,1419.756,665.221,1421.95,640.684z"/>
					<path style="fill:#201D40;" d="M1235.853,697.649c0,0,5.437,31.844,12.389,40.352c1.506-13.709,31.578-5.084,44.645-3.937
						c23.663,2.075,47.684-18.924,55.655,12.155c30.133,1.747,41.102-64.591,41.102-64.591
						c18.536,66.293-14.649,114.645-87.708,121.382C1253.802,807.447,1227.142,746.017,1235.853,697.649z"/>
					<path d="M1324.788,685.599c4.483,0.302,8.361-3.088,8.663-7.571c0.301-4.483-3.089-8.361-7.572-8.662
						c-4.483-0.302-8.361,3.089-8.663,7.572C1316.915,681.42,1320.305,685.298,1324.788,685.599z"/>
					<path d="M1257.613,683.122c4.483,0.301,8.361-3.089,8.663-7.571c0.301-4.483-3.089-8.361-7.572-8.663
						c-4.483-0.301-8.361,3.089-8.662,7.572C1249.74,678.942,1253.13,682.821,1257.613,683.122z"/>
					<g>
						<path style="fill:#201D40;" d="M1244.1,666.139c1.375,0.093,2.763-0.521,3.6-1.74c2.305-3.353,4.954-5.277,7.873-5.721
							c5.042-0.766,9.743,2.883,9.79,2.92c1.744,1.374,4.28,1.086,5.663-0.65c1.383-1.738,1.112-4.259-0.617-5.651
							c-0.298-0.24-7.4-5.865-15.956-4.613c-5.252,0.768-9.762,3.844-13.404,9.141c-1.263,1.837-0.798,4.35,1.038,5.612
							C1242.707,665.863,1243.402,666.093,1244.1,666.139z"/>
					</g>
					<g>
						<path style="fill:#201D40;" d="M1343.136,672.622c0.883,0.059,1.792-0.17,2.574-0.716c1.829-1.273,2.279-3.789,1.005-5.618
							c-4.849-6.962-10.465-10.952-16.692-11.857c-8.035-1.169-13.923,3.44-14.169,3.637c-1.742,1.391-2.027,3.93-0.637,5.673
							c1.384,1.733,3.904,2.023,5.645,0.657c0.125-0.093,3.614-2.662,8.101-1.963c3.895,0.605,7.639,3.454,11.13,8.467
							C1340.821,671.947,1341.956,672.542,1343.136,672.622z"/>
					</g>
					<g>
						<path style="fill:#F37A50;" d="M1390.415,681.899c-10.072,9.58-11.881,24.028-4.041,32.27
							c7.84,8.243,22.361,7.158,32.433-2.422c10.071-9.58,11.881-24.028,4.041-32.27
							C1415.007,671.234,1400.486,672.318,1390.415,681.899z"/>
						<g>
							<path style="fill:#DE623C;" d="M1399.512,710.242c-0.428-0.162-0.825-0.424-1.156-0.783
								c-4.747-5.16-5.764-11.387-2.722-16.657c3.115-5.398,9.601-8.371,15.421-7.07c1.638,0.368,2.669,1.992,2.303,3.63
								c-0.366,1.638-1.991,2.668-3.629,2.304c-3.188-0.713-7.067,1.12-8.831,4.174c-1.693,2.934-1.007,6.309,1.932,9.503
								c1.137,1.236,1.057,3.158-0.179,4.294C1401.775,710.443,1400.554,710.638,1399.512,710.242z"/>
						</g>
					</g>
					<path style="fill:#FFFFFF;" d="M1319.221,743.194c0.336-2.095-0.135-4.086-2.24-3.818c-5.35,0.683-14.198,1.625-22.649,1.693
						c-8.452,0.068-17.313-0.733-22.674-1.33c-2.109-0.234-2.607,1.774-2.178,3.852c1.777,8.604,11.536,18.203,24.491,18.099
						S1317.97,750.99,1319.221,743.194z"/>
				</g>
			</g>
		</g>
		<path d="M1272.542,1802.6c-30.251,41.738-104.54,16.127-102.081,72.58c112.971-0.725,159.921,0,159.921,0
			c-0.148-12.967-2.382-43.742-4.987-55.789L1272.542,1802.6z"/>
		<path d="M1441.565,1803.693c-30.25,41.738-104.539,16.127-102.08,72.58c112.971-0.726,159.921,0,159.921,0
			c-0.149-12.965-2.383-43.742-4.987-55.789L1441.565,1803.693z"/>
		<path style="fill:#2E2A5C;" d="M1220.245,1165.398c0,0-18.342,267.51-10.891,326.984c7.452,59.473,33.837,135.721,30.847,332.439
			c36.826,9.221,90.181,0,90.181,0s7.911-222.435-31.02-321.788c15.83-96.507,66.629-317.544,66.629-317.544L1220.245,1165.398z"/>
		<path style="fill:#373178;" d="M1289.952,1172.711c0,0,37.036,300.326,55.166,357.289c18.13,56.963,33.906,98.693,66.729,292.484
			c37.846,1.894,92.506,0.721,92.506,0.721s-4.946-240.1-63.889-296.002c-1.995-97.863,9.53-352.565,9.53-352.565L1289.952,1172.711
			z"/>
		<g id="v_7_">
			<path id="h-5_4_" style="fill:#98B0F2;" d="M1460.686,831.863c0,0-64.324-22.521-85.775-12.192c-66.649,32.093-81.938,0-81.938,0
				c-21.298,1.838-85.591,12.192-85.591,12.192c0,71.8-4.794,143.848-3.487,198.181c0.919,47.317-8.097,176.082-8.097,176.082
				s70.918,18.593,138.008,19.077c67.089-0.437,135.372-18.323,135.372-18.323s-3.583-130.417-6.563-178.89
				C1463.582,973.656,1460.686,903.47,1460.686,831.863z"/>
		</g>
		<g id="c_48_">
			<path id="c_49_" style="fill:#5E8ADB;" d="M1093.039,938.575c26.551-63.348,105.338-103.639,114.344-106.712l18.274,81.324
				c-37.85,22.383-65.324,46.6-65.324,46.6c4.658,22.643,3.879,44.852,16.987,73.49c0,0-11.383-15.709-25.428-6.413
				c-13.653,9.037-38.764-9.408-38.764-9.408S1072.758,986.962,1093.039,938.575z"/>
		</g>
		<g id="c_41_">
			<g id="c_44_">
				<g id="c_45_">
					<path id="c_47_" style="fill:#80BC48;" d="M1107.833,1098.662c-0.458,0.142-0.92,0.232-1.379,0.281h-1.51
						c-2.769-0.297-5.232-2.188-6.111-5.014l-70.782-228.204c-0.143-0.458-0.232-0.92-0.282-1.38
						c-0.032-0.305-0.016-0.602-0.009-0.9c0.004-0.18-0.017-0.364,0-0.543c0.016-0.161,0.064-0.311,0.09-0.468
						c0.43-2.594,2.244-4.862,4.925-5.699c0.432-0.133,0.879-0.236,1.346-0.289c0.521-0.058,1.034-0.051,1.536,0h178.185
						l71.403,242.499h-177.534L1107.833,1098.662z"/>
					<path id="c_46_" style="fill:#17962E;" d="M1212.222,856.729c3.793-1.177,7.822,0.941,9,4.732l70.337,227.638l0.159,0.533
						c1.167,3.778-0.939,7.778-4.703,8.97l-0.008,0.016c-3.792,1.178-7.822-0.941-9-4.732l-70.52-228.16
						C1206.309,861.935,1208.429,857.907,1212.222,856.729z"/>
				</g>
			</g>
			<path id="c_43_" style="fill:#F37A50;" d="M1077.603,1001.508c-0.665-0.44-1.39-0.72-2.133-0.929
				c0.077-0.111,0.159-0.214,0.235-0.328c4.434-6.685,4.137-14.683-0.661-17.86c-0.787-0.522-1.652-0.866-2.559-1.071
				c1.247-4.951,0.13-9.679-3.296-11.947c-1.36-0.901-2.939-1.302-4.6-1.285c1.567-4.864,0.323-9.971-3.513-12.511
				c-4.798-3.178-11.755-1.126-15.539,4.581c-3.784,5.707-2.961,12.911,1.837,16.088c1.215,0.805,2.568,1.271,3.973,1.431
				c-3.193,6.224-2.549,13.036,1.789,15.909c0.788,0.523,1.652,0.866,2.559,1.073c-1.247,4.951-0.13,9.678,3.297,11.947
				c1.263,0.836,2.715,1.244,4.245,1.287c-1.586,4.254-0.579,8.838,2.793,11.071c4.053,2.685,9.929,0.952,13.124-3.868
				S1081.655,1004.191,1077.603,1001.508z"/>
			<path style="fill:#F37A50;" d="M1296.664,987.085l-16.243-9.411c0,0-4.497-23.039-30.581-23.594
				c2.987,9.667,7.29,23.594,7.29,23.594s-12.838,9.967-43.288-7.091c-29.766-6.689-17.052,15.013-26.917,16.571
				c-14.557,2.299,10.611,30.907,40.332,35.284c38.458,5.662,43.021-2.209,43.021-2.209l21.761,7.604L1296.664,987.085z"/>
			<path id="c_42_" style="fill:#5E8ADB;" d="M1462.779,1013.883c-54.29-3.793-162.712-32.793-162.712-32.793
				c-14.821,22.732-10.722,52.926-10.722,52.926c84.311,73.916,211.199,97.813,250.131,80.021
				c35.543-16.243,10.295-232.664-78.947-282.229L1462.779,1013.883z"/>
		</g>
		<path style="fill:#17962E;" d="M1175.908,891.378c3.077,7.705,10.983,11.789,17.661,9.123c6.677-2.666,9.597-11.073,6.52-18.777
			c-3.076-7.705-10.983-11.79-17.661-9.124C1175.751,875.267,1172.832,883.674,1175.908,891.378z"/>
		<path style="fill:#17962E;" d="M1153.163,888.763c1.835,4.597,6.552,7.033,10.536,5.443c3.983-1.59,5.725-6.606,3.889-11.202
			c-1.835-4.597-6.552-7.033-10.535-5.442C1153.069,879.151,1151.327,884.167,1153.163,888.763z"/>
	</g>
</g>
</svg>
