<svg version="1.1" id="Layer_1" xmlns="http://www.w3.org/2000/svg" xmlns:xlink="http://www.w3.org/1999/xlink" x="0px" y="0px" viewBox="-1422.2 401.1 2235.4 142.7" style="enable-background:new -1422.2 401.1 2235.4 142.7;" xml:space="preserve">
 <style type="text/css">
  .st0{fill:none;}
	.st1{fill:#006FCF;}
 </style>
 <g>
  <path class="st0" d="M-1422.2,401.1H813.2v142.7h-2235.4V401.1z">
  </path>
  <path class="st1" d="M766.6,456.2h-34.2c-7.6,0-12.4-4.8-12.4-11.4s5.7-10.5,12.4-10.5h61.8l14.3-31.4h-76.1
		c-31.4,0-49.5,19-49.5,43.8c0,26.6,17.1,41.9,44.7,41.9h34.2c7.6,0,12.4,4.8,12.4,11.4c0,6.7-4.8,11.4-12.4,11.4h-74.2v31.4h74.2
		c31.4,0,49.5-18.1,49.5-44.7C811.3,471.4,795.1,456.2,766.6,456.2 M630.6,456.2h-34.2c-7.6,0-12.4-4.8-12.4-11.4
		s5.7-10.5,12.4-10.5h61.8l14.3-31.4h-76.1c-31.4,0-49.5,19-49.5,43.8c0,26.6,17.1,41.9,44.7,41.9h34.2c7.6,0,12.4,4.8,12.4,11.4
		c0,6.7-4.8,11.4-12.4,11.4h-74.2v31.4h74.2c31.4,0,49.5-18.1,49.5-44.7C675.3,471.4,659.1,456.2,630.6,456.2 M413.7,541.8h117
		v-31.4h-79.9v-22.8h78v-31.4h-78v-21.9h79.9V403h-117V541.8z M340.4,461.9h-39v-27.6h39c11.4,0,17.1,6.7,17.1,14.3
		C356.6,456.2,350.9,461.9,340.4,461.9 M394.7,447.7c0-26.6-19-44.7-49.5-44.7h-79.9v138.9h37.1v-48.5h13.3l41.9,48.5h45.7
		l-45.7-50.4C380.4,486.7,394.7,469.5,394.7,447.7 M194.9,464.8h-40v-30.4h40c11.4,0,17.1,6.7,17.1,15.2
		C211.1,458.1,205.4,464.8,194.9,464.8 M198.7,403h-80.9v138.9H155v-45.7h42.8c31.4,0,50.4-20,50.4-46.6
		C248.2,422,229.2,403,198.7,403 M111.2,403H63.6l-36.1,41.9L-8.7,403h-48.5l60.9,68.5l-61.8,70.4h47.6l37.1-43.8l38.1,43.8h48.5
		l-62.8-71.3L111.2,403z M-180.8,541.8h117v-31.4h-79.9v-22.8h78v-31.4h-78v-21.9h79.9V403h-117V541.8z M-311.2,487.6l-57.1-84.7
		h-46.6v138.9h37.1v-88.5l58,88.5h44.7V403h-36.1L-311.2,487.6z M-527.1,482.9l19-46.6l19,46.6H-527.1z M-530.9,403l-60.9,138.9
		h40.9l11.4-28.5h64.7l12.4,28.5h41.9L-483.3,403H-530.9z M-652.7,473.4v-2.9c0-20.9,11.4-35.2,35.2-35.2h41.9V403h-44.7
		c-45.7,0-69.4,29.5-69.4,67.5v2.9c0,42.8,26.6,67.5,67.5,67.5h12.4l15.2-31.4h-21.9C-638.4,510.5-652.7,498.1-652.7,473.4
		 M-745.9,403v138.9h37.1V403H-745.9z M-820.1,461.9h-39v-27.6h39c11.4,0,17.1,6.7,17.1,14.3S-808.7,461.9-820.1,461.9
		 M-765.9,447.7c0-26.6-19-44.7-49.5-44.7h-79.9v138.9h37.1v-48.5h13.3l41.9,48.5h46.6l-45.7-50.4
		C-779.2,486.7-765.9,469.5-765.9,447.7 M-1037,541.8h117v-31.4h-79.9v-22.8h78v-31.4h-78v-21.9h79.9V403h-117V541.8z
		 M-1154.9,490.5l-31.4-87.5h-58v138.9h36.1V442l36.1,99.9h33.3l37.1-99.9v99.9h36.1V403h-58L-1154.9,490.5z M-1356.6,482.9l19-46.6
		l19,46.6C-1318.5,482.9-1356.6,482.9-1356.6,482.9z M-1361.3,403l-60.9,138.9h40.9l11.4-28.5h64.7l12.4,28.5h41.9l-61.8-138.9
		H-1361.3z">
  </path>
 </g>
</svg>