<svg version="1.1" id="Layer_1" xmlns:x="ns_extend;" xmlns:i="ns_ai;" xmlns:graph="ns_graphs;" xmlns="http://www.w3.org/2000/svg" xmlns:xlink="http://www.w3.org/1999/xlink" x="0px" y="0px" viewBox="0 0 194.3 42.9" style="enable-background:new 0 0 194.3 42.9;" xml:space="preserve">
 <style type="text/css">
  .st0{fill:#00D54B;}
	.st1{fill-rule:evenodd;clip-rule:evenodd;fill:#00D54B;}
 </style>
 <metadata>
  <sfw xmlns="ns_sfw;">
   <slices>
   </slices>
   <sliceSourceBounds bottomLeftOrigin="true" height="42.9" width="194.3" x="103.1" y="-221.7">
   </sliceSourceBounds>
  </sfw>
 </metadata>
 <g>
  <path class="st0" d="M77.3,16.6c-0.2,0.1-0.4,0.1-0.6,0.1c-0.2,0-0.4-0.2-0.5-0.3c-0.6-0.8-1.4-1.5-2.3-2c-0.9-0.5-1.9-0.7-3-0.7
		c-4,0-6.5,3.2-6.5,7.7c0,4.5,2.5,7.8,6.5,7.8c1,0,2.1-0.2,3-0.7c0.9-0.5,1.7-1.2,2.3-2.1c0.1-0.2,0.3-0.3,0.5-0.3
		c0.2,0,0.4,0,0.6,0.1l1.9,1.1c0.1,0.1,0.2,0.1,0.3,0.2c0.1,0.1,0.1,0.2,0.2,0.3c0,0.1,0,0.2,0,0.3c0,0.1-0.1,0.2-0.1,0.3
		c-0.9,1.4-2.2,2.5-3.7,3.3c-1.5,0.8-3.2,1.1-4.8,1.1c-6.4,0-10.8-4.7-10.8-11.4S64.7,10.1,71,10.1c1.6,0,3.3,0.3,4.8,1
		c1.5,0.7,2.8,1.8,3.7,3.2c0.1,0.1,0.1,0.2,0.1,0.3c0,0.1,0,0.2,0,0.3c0,0.1-0.1,0.2-0.1,0.3c-0.1,0.1-0.1,0.2-0.2,0.2L77.3,16.6z">
  </path>
  <path class="st0" d="M91.4,31.7v-0.9c-1,1.3-2.4,2.1-4.7,2.1c-3.3,0-5.6-1.8-5.6-5c0-4,3.5-4.7,5.7-5c2.3-0.3,4.3-0.5,4.3-2
		c0-1.4-1.6-1.7-2.9-1.7c-1.5,0-3,0.4-4.4,1.1c-0.1,0.1-0.2,0.1-0.3,0.1c-0.1,0-0.2,0-0.3,0c-0.1,0-0.2-0.1-0.3-0.2
		c-0.1-0.1-0.1-0.2-0.2-0.3l-0.7-1.4C82,18.2,82,18,82,17.8c0.1-0.2,0.2-0.4,0.4-0.5c1.9-1,4-1.5,6.2-1.5c3.8,0,6.5,1.6,6.5,5.4
		v10.5c0,0.2-0.1,0.4-0.2,0.6c-0.2,0.2-0.4,0.2-0.6,0.2h-2.1c-0.1,0-0.2,0-0.3-0.1c-0.1,0-0.2-0.1-0.3-0.2c-0.1-0.1-0.1-0.2-0.2-0.3
		C91.4,31.9,91.4,31.8,91.4,31.7L91.4,31.7z M91.1,24.4c-0.7,0.6-2.1,0.7-3.5,1c-1.4,0.3-2.7,0.6-2.7,2.2c0,1.4,1,2.1,2.6,2.1
		c1.9,0,3.6-1,3.6-3.5V24.4z">
  </path>
  <path class="st0" d="M98.5,28.3c0.1-0.2,0.3-0.3,0.5-0.3c0.2,0,0.4,0,0.6,0.2c1.3,1,3,1.5,4.7,1.5c1.7,0,3-0.6,3-1.9
		c0-1.2-1.2-1.5-4-2c-3-0.5-5.9-1.5-5.9-4.9c0-3.6,3.1-5.1,6.6-5.1c2.2,0,4.4,0.7,6.1,2c0.1,0.1,0.2,0.2,0.2,0.2
		c0.1,0.1,0.1,0.2,0.1,0.3c0,0.1,0,0.2,0,0.3c0,0.1-0.1,0.2-0.2,0.3l-1,1.2c-0.1,0.2-0.3,0.3-0.5,0.3c-0.2,0-0.4,0-0.6-0.2
		c-1.2-0.9-2.7-1.4-4.3-1.4c-1.5,0-2.8,0.4-2.8,1.6c0,1.3,1.8,1.5,3.6,1.9c3.9,0.7,6.3,1.8,6.3,5c0,3.4-2.7,5.5-7,5.5
		c-2.4,0.1-4.7-0.7-6.5-2.1c-0.1-0.1-0.2-0.2-0.2-0.2c-0.1-0.1-0.1-0.2-0.1-0.3c0-0.1,0-0.2,0-0.3c0-0.1,0.1-0.2,0.2-0.3L98.5,28.3z
		">
  </path>
  <path class="st0" d="M113.5,31.7V11.3c0-0.2,0.1-0.4,0.2-0.6c0.2-0.2,0.4-0.2,0.6-0.2h2.3c0.2,0,0.4,0.1,0.6,0.2
		c0.1,0.2,0.2,0.4,0.2,0.6v7c0.6-0.8,1.3-1.4,2.2-1.8s1.8-0.6,2.8-0.6c3.4,0,5.4,2.4,5.4,5.9v9.9c0,0.2-0.1,0.4-0.2,0.6
		c-0.2,0.2-0.4,0.2-0.6,0.2h-2.3c-0.2,0-0.4-0.1-0.6-0.2c-0.2-0.2-0.2-0.4-0.2-0.6v-9c0-1.7-0.6-3.3-2.8-3.3c-2.1,0-3.7,1.5-3.7,3.9
		v8.4c0,0.2-0.1,0.4-0.2,0.6c-0.2,0.2-0.4,0.2-0.6,0.2h-2.3c-0.1,0-0.2,0-0.3-0.1c-0.1,0-0.2-0.1-0.3-0.2c-0.1-0.1-0.1-0.2-0.2-0.3
		C113.5,31.9,113.5,31.8,113.5,31.7L113.5,31.7z">
  </path>
  <path class="st0" d="M153.2,31.9l-1.7-4.9h-8.4l-1.7,4.9c-0.1,0.2-0.2,0.3-0.3,0.4c-0.1,0.1-0.3,0.1-0.5,0.1H138
		c-0.1,0-0.3,0-0.4-0.1s-0.2-0.1-0.3-0.3c-0.1-0.1-0.1-0.2-0.1-0.4c0-0.1,0-0.3,0-0.4l7.6-20.4c0.1-0.1,0.2-0.3,0.3-0.4
		c0.1-0.1,0.3-0.1,0.5-0.1h3.7c0.2,0,0.3,0.1,0.5,0.1c0.1,0.1,0.2,0.2,0.3,0.4l7.5,20.4c0,0.1,0.1,0.3,0,0.4c0,0.1-0.1,0.3-0.1,0.4
		c-0.1,0.1-0.2,0.2-0.3,0.3c-0.1,0.1-0.2,0.1-0.4,0.1h-2.9c-0.2,0-0.3-0.1-0.5-0.2C153.3,32.2,153.2,32.1,153.2,31.9z M147.4,14
		l-3.2,9.6h6.3L147.4,14z">
  </path>
  <path class="st0" d="M163.3,17v1.3c0.6-0.8,1.3-1.4,2.2-1.8c0.9-0.4,1.8-0.6,2.8-0.6c4.4,0,7.3,3.7,7.3,8.5c0,4.8-2.9,8.5-7.3,8.5
		c-1,0-1.9-0.2-2.8-0.6c-0.9-0.4-1.6-1.1-2.2-1.9V37c0,0.2-0.1,0.4-0.2,0.6c-0.2,0.2-0.4,0.2-0.6,0.2h-2.3c-0.2,0-0.4-0.1-0.6-0.2
		c-0.2-0.2-0.2-0.4-0.2-0.6V17c0-0.2,0.1-0.4,0.2-0.6c0.1-0.2,0.4-0.2,0.6-0.2h2.3c0.1,0,0.2,0,0.3,0.1c0.1,0,0.2,0.1,0.3,0.2
		c0.1,0.1,0.1,0.2,0.2,0.3C163.3,16.8,163.4,16.9,163.3,17z M167.5,29.4c2.7,0,4-2.3,4-5.1c0-2.8-1.3-5.1-4-5.1
		c-2.7,0-4.2,2.2-4.2,5.1C163.3,27.1,164.8,29.4,167.5,29.4z">
  </path>
  <path class="st0" d="M182,17v1.3c0.6-0.8,1.3-1.4,2.2-1.8c0.9-0.4,1.8-0.6,2.8-0.6c4.4,0,7.3,3.7,7.3,8.5c0,4.8-2.9,8.5-7.3,8.5
		c-1,0-1.9-0.2-2.8-0.6c-0.9-0.4-1.6-1.1-2.2-1.9V37c0,0.2-0.1,0.4-0.2,0.6c-0.1,0.2-0.4,0.2-0.6,0.2h-2.3c-0.2,0-0.4-0.1-0.6-0.2
		c-0.2-0.2-0.2-0.4-0.2-0.6V17c0-0.2,0.1-0.4,0.2-0.6c0.1-0.2,0.4-0.2,0.6-0.2h2.3c0.1,0,0.2,0,0.3,0.1c0.1,0,0.2,0.1,0.3,0.2
		c0.1,0.1,0.1,0.2,0.2,0.3C182,16.8,182,16.9,182,17L182,17z M186.2,29.4c2.7,0,4-2.3,4-5.1c0-2.8-1.3-5.1-4-5.1
		c-2.7,0-4.2,2.2-4.2,5.1C182,27.1,183.4,29.4,186.2,29.4z">
  </path>
  <path class="st1" d="M9.9,0C4.4,0,0,4.4,0,9.9V33c0,5.5,4.4,9.9,9.9,9.9h22.9c5.5,0,9.9-4.4,9.9-9.9V9.9c0-5.5-4.4-9.9-9.9-9.9H9.9
		z M28.3,16c-1.6-1.4-3.7-2.1-5.8-2.1c-1.8,0-3.5,0.6-3.5,2.2c0,1.5,1.6,2.1,3.5,2.8c0.2,0.1,0.4,0.1,0.6,0.2c3.8,1.3,7,2.9,7,6.6
		c0,4.1-3.2,6.8-8.3,7.2l-0.5,2.2c-0.1,0.4-0.4,0.7-0.9,0.7h-3.2c-0.3,0-0.5-0.1-0.7-0.3c-0.2-0.2-0.2-0.5-0.2-0.7l0.5-2.3
		c-1.9-0.5-3.7-1.5-5.2-2.9c-0.2-0.2-0.3-0.4-0.3-0.6c0-0.2,0.1-0.5,0.3-0.6l1.8-1.8c0.3-0.3,0.9-0.3,1.2,0c1.6,1.6,3.9,2.4,6.1,2.4
		c2.3,0,3.9-1,3.9-2.6c0-1.4-1.3-1.9-3.8-2.8c-0.3-0.1-0.5-0.2-0.8-0.3c-3.2-1.1-6.2-2.8-6.2-6.5c0-4.4,3.6-6.5,8-6.7l0.5-2.2
		C22.3,7.2,22.7,7,23.1,7h3.2c0.3,0,0.5,0.1,0.7,0.3c0.2,0.2,0.2,0.5,0.2,0.7l-0.5,2.5c1.6,0.5,3.2,1.4,4.5,2.5
		c0.2,0.2,0.3,0.4,0.3,0.6c0,0.2-0.1,0.5-0.3,0.6l-1.7,1.7C29.2,16.3,28.6,16.3,28.3,16z">
  </path>
 </g>
</svg>