<?xml version="1.0" encoding="utf-8"?>
<!-- Uploaded to: SVG Repo, www.svgrepo.com, Generator: SVG Repo Mixer Tools -->
<svg width="800px" height="800px" viewBox="0 -3 20 20" xmlns="http://www.w3.org/2000/svg">
  <g id="limousine" transform="translate(-2 -6)">
    <path id="secondary" fill="#2ca9bc" d="M20.45,12.72,19,12H5l-1.45.72a1,1,0,0,0-.55.9V16a1,1,0,0,0,1,1H5a2,2,0,0,1,4,0h6a2,2,0,0,1,4,0h1a1,1,0,0,0,1-1V13.62A1,1,0,0,0,20.45,12.72Z"/>
    <path id="primary" d="M5,17H4a1,1,0,0,1-1-1V13.62a1,1,0,0,1,.55-.9L5,12,6.75,7.63A1,1,0,0,1,7.68,7h8.64a1,1,0,0,1,.93.63L19,12l1.45.72a1,1,0,0,1,.55.9V16a1,1,0,0,1-1,1H19" fill="none" stroke="#000000" stroke-linecap="round" stroke-linejoin="round" stroke-width="2"/>
    <path id="primary-2" data-name="primary" d="M5,12H19m-4,5H9m3-5V7M7,15a2,2,0,1,0,2,2A2,2,0,0,0,7,15Zm10,0a2,2,0,1,0,2,2A2,2,0,0,0,17,15Z" fill="none" stroke="#000000" stroke-linecap="round" stroke-linejoin="round" stroke-width="2"/>
  </g>
</svg>